HIERARCHY
ROOT Hips
{
	OFFSET 50.711899 -9.243999 51.665699
	CHANNELS 6 Xposition Yposition Zposition Xrotation Yrotation Zrotation
	JOINT spine
	{
		OFFSET 0.000000 -0.507025 8.817039
		CHANNELS 3 Xrotation Yrotation Zrotation
		JOINT spine1
		{
			OFFSET 0.000000 -0.000002 10.776600
			CHANNELS 3 Xrotation Yrotation Zrotation
			JOINT spine2
			{
				OFFSET 0.000000 -0.000002 10.325897
				CHANNELS 3 Xrotation Yrotation Zrotation
				JOINT Neck
				{
					OFFSET 0.000000 -1.263954 26.511002
					CHANNELS 3 Xrotation Yrotation Zrotation
					JOINT Head
					{
						OFFSET 0.000000 -0.000002 8.009659
						CHANNELS 3 Xrotation Yrotation Zrotation
						End Site
						{
							OFFSET 0.000000 6.393857 19.387894
						}
					}
				}
				JOINT RightShoulder
				{
					OFFSET -4.347950 0.605420 11.151199
					CHANNELS 3 Xrotation Yrotation Zrotation
					JOINT RightArm
					{
						OFFSET 0.000000 -0.000002 14.625801
						CHANNELS 3 Xrotation Yrotation Zrotation
						JOINT RightArmRoll
						{
							OFFSET 0.000000 -0.000002 7.383400
							CHANNELS 3 Xrotation Yrotation Zrotation
							JOINT RightForeArm
							{
								OFFSET 0.000000 -0.000003 21.505203
								CHANNELS 3 Xrotation Yrotation Zrotation
								JOINT RightForeArmRoll
								{
									OFFSET 0.000000 -0.000002 8.285324
									CHANNELS 3 Xrotation Yrotation Zrotation
									JOINT RightHand
									{
										OFFSET 0.000000 -0.000003 16.626801
										CHANNELS 3 Xrotation Yrotation Zrotation
										End Site
										{
											OFFSET 0.000000 0.000000 0.100006
										}
									}
								}
							}
						}
					}
				}
				JOINT LeftShoulder
				{
					OFFSET 4.347950 0.605420 11.151199
					CHANNELS 3 Xrotation Yrotation Zrotation
					JOINT LeftArm
					{
						OFFSET 0.000000 -0.000002 14.625801
						CHANNELS 3 Xrotation Yrotation Zrotation
						JOINT LeftArmRoll
						{
							OFFSET 0.000000 -0.000002 7.383400
							CHANNELS 3 Xrotation Yrotation Zrotation
							JOINT LeftForeArm
							{
								OFFSET 0.000000 -0.000003 21.505203
								CHANNELS 3 Xrotation Yrotation Zrotation
								JOINT LeftForeArmRoll
								{
									OFFSET 0.000000 -0.000002 8.285324
									CHANNELS 3 Xrotation Yrotation Zrotation
									JOINT LeftHand
									{
										OFFSET 0.000000 -0.000003 16.626801
										CHANNELS 3 Xrotation Yrotation Zrotation
										End Site
										{
											OFFSET 0.000000 0.000000 0.100006
										}
									}
								}
							}
						}
					}
				}
			}
		}
	}
	JOINT RightUpLeg
	{
		OFFSET -7.815102 1.202170 -1.433090
		CHANNELS 3 Xrotation Yrotation Zrotation
		JOINT RightUpLegRoll
		{
			OFFSET 0.000000 -0.000003 19.495899
			CHANNELS 3 Xrotation Yrotation Zrotation
			JOINT RightLeg
			{
				OFFSET 0.000000 0.000004 -24.142700
				CHANNELS 3 Xrotation Yrotation Zrotation
				JOINT RightLegRoll
				{
					OFFSET 0.000000 -0.000004 24.221703
					CHANNELS 3 Xrotation Yrotation Zrotation
					JOINT RightFoot
					{
						OFFSET 0.000000 -0.000003 20.160500
						CHANNELS 3 Xrotation Yrotation Zrotation
						JOINT RightToeBase
						{
							OFFSET 0.000000 -0.000003 16.853203
							CHANNELS 3 Xrotation Yrotation Zrotation
							End Site
							{
								OFFSET 0.007145 0.940779 8.161873
							}
						}
					}
				}
			}
		}
	}
	JOINT LeftUpLeg
	{
		OFFSET 7.815102 1.202170 -1.433090
		CHANNELS 3 Xrotation Yrotation Zrotation
		JOINT LeftUpLegRoll
		{
			OFFSET 0.000000 -0.000003 19.495998
			CHANNELS 3 Xrotation Yrotation Zrotation
			JOINT LeftLeg
			{
				OFFSET 0.000000 -0.000004 24.142601
				CHANNELS 3 Xrotation Yrotation Zrotation
				JOINT LeftLegRoll
				{
					OFFSET 0.000000 -0.000004 24.445602
					CHANNELS 3 Xrotation Yrotation Zrotation
					JOINT LeftFoot
					{
						OFFSET 0.000000 -0.000004 19.936607
						CHANNELS 3 Xrotation Yrotation Zrotation
						JOINT LeftToeBase
						{
							OFFSET 0.000000 -0.000002 16.853195
							CHANNELS 3 Xrotation Yrotation Zrotation
							End Site
							{
								OFFSET -0.032013 0.940779 8.161865
							}
						}
					}
				}
			}
		}
	}
}
MOTION
Frames: 6
Frame Time: 0.041667
50.711899 -9.472447 50.799492 -3.521735 1.678007 2.272856 1.899999 -0.890376 -0.144914 7.801702 -1.790276 -0.252062 9.447120 -1.793163 -0.230591 40.651688 0.901484 2.379531 -0.017724 12.821199 1.182255 -6.882718 -62.173880 -8.405446 -65.291834 -130.484876 -79.342729 -0.000005 0.000004 -0.000003 52.110355 -12.914457 5.260675 -0.000001 0.000002 -3.004568 -5.000221 -7.998771 0.000161 -2.517758 61.600855 3.306455 -59.431675 126.757273 68.060567 0.000001 -0.000020 -0.000001 52.445696 8.625549 -2.472500 0.000001 -0.000009 3.000000 -5.000230 7.998724 -0.000152 -91.530764 -167.709421 9.065573 -179.999991 0.000005 -1.933005 70.224214 2.087717 1.786072 -0.000005 0.000003 2.719550 80.126773 8.296067 -3.927994 25.457196 -7.349462 0.003842 -93.734695 168.996324 -2.649036 -0.000005 -0.000005 -1.484410 -110.072405 -4.814286 -4.412525 0.000000 0.000003 -2.441741 77.906770 -6.672393 -2.094178 25.461776 7.355005 -0.005426 
50.692101 -9.489047 50.793903 -3.642057 1.684453 2.266323 1.897250 -0.890287 -0.148312 7.796150 -1.790438 -0.258552 9.441567 -1.793408 -0.237079 40.519964 0.848207 2.399666 -0.011763 12.831902 1.188095 -6.981279 -62.359443 -8.534829 -65.423008 -130.510449 -79.428550 -0.000004 0.000002 -0.000005 51.978201 -12.964807 5.273427 -0.000001 0.000000 -3.004570 -5.000221 -7.998771 0.000161 -2.622342 61.632711 3.430918 -59.553621 126.778447 68.203394 0.000000 -0.000021 0.000002 52.297591 8.685508 -2.493040 -0.000001 -0.000010 3.000000 -5.000228 7.998723 -0.000151 -91.415436 -167.739105 9.085262 -179.999991 0.000005 -1.935998 70.182844 2.112190 1.823573 -0.000004 0.000003 2.718510 80.159817 8.286915 -3.904297 25.457194 -7.349462 0.003841 -93.629305 168.981202 -2.641120 -0.000005 -0.000005 -1.483940 -110.106864 -4.824712 -4.420867 0.000000 0.000003 -2.441308 77.927636 -6.669491 -2.102043 25.461770 7.355005 -0.005456 
50.718800 -9.516099 50.788696 -3.760261 1.691663 2.259025 1.893889 -0.890428 -0.151769 7.789379 -1.790973 -0.265221 9.434785 -1.794025 -0.243742 40.399404 0.803993 2.416517 -0.020071 12.829501 1.196108 -7.062817 -62.533490 -8.643470 -65.536676 -130.536335 -79.490213 -0.000004 0.000003 -0.000003 51.836942 -13.015230 5.284653 0.000001 -0.000001 -3.004572 -5.000224 -7.998776 0.000160 -2.722663 61.661773 3.550133 -59.667925 126.799457 68.336063 0.000001 -0.000020 0.000002 52.145732 8.744870 -2.513226 -0.000000 -0.000010 3.000000 -5.000227 7.998723 -0.000148 -91.302199 -167.769295 9.103472 -179.999991 0.000005 -1.939006 70.149533 2.134514 1.856553 -0.000004 0.000003 2.717530 80.184795 8.278949 -3.882510 25.457199 -7.349464 0.003841 -93.525555 168.967610 -2.630812 -0.000005 -0.000005 -1.483810 -110.136281 -4.834703 -4.429920 -0.000001 0.000003 -2.441090 77.943844 -6.666648 -2.110283 25.461764 7.355006 -0.005475 
50.707199 -9.546339 50.766102 -3.876129 1.699715 2.250836 1.889786 -0.890844 -0.155290 7.781119 -1.791939 -0.272095 9.426530 -1.795075 -0.250603 40.291993 0.770266 2.429649 -0.044658 12.811995 1.206503 -7.124199 -62.694498 -8.727625 -65.632340 -130.561853 -79.526700 -0.000004 0.000003 -0.000003 51.685278 -13.065913 5.294293 0.000002 -0.000000 -3.004570 -5.000221 -7.998772 0.000161 -2.817529 61.687864 3.662692 -59.777672 126.818458 68.462189 0.000000 -0.000020 -0.000000 51.989505 8.803558 -2.533029 -0.000002 -0.000009 3.000001 -5.000230 7.998719 -0.000151 -91.191345 -167.800071 9.121679 -179.999991 0.000005 -1.940997 70.125436 2.154362 1.884245 -0.000004 0.000002 2.716621 80.200341 8.272421 -3.863210 25.457191 -7.349463 0.003842 -93.423642 168.955493 -2.620104 -0.000004 -0.000004 -1.484080 -110.159593 -4.844770 -4.438725 0.000000 0.000003 -2.441088 77.954616 -6.663915 -2.118561 25.461767 7.355004 -0.005497 
50.723301 -9.552546 50.759705 -3.989465 1.708992 2.242001 1.884956 -0.891467 -0.158991 7.771400 -1.793199 -0.279394 9.416811 -1.796418 -0.257887 40.196408 0.746450 2.439484 -0.085951 12.778590 1.219522 -7.166555 -62.847241 -8.788973 -65.715244 -130.586318 -79.544957 -0.000004 0.000003 -0.000004 51.523447 -13.117751 5.303049 0.000003 -0.000001 -3.004571 -5.000220 -7.998772 0.000161 -2.908978 61.711579 3.770996 -59.883581 126.836012 68.582735 0.000000 -0.000020 0.000001 51.829497 8.862012 -2.552736 0.000003 -0.000009 3.000001 -5.000233 7.998723 -0.000147 -91.082806 -167.831463 9.139077 -179.999991 0.000006 -1.943007 70.108470 2.172109 1.907639 -0.000004 0.000002 2.715730 80.208885 8.266790 -3.845217 25.457196 -7.349464 0.003842 -93.323955 168.945385 -2.606453 -0.000004 -0.000004 -1.484581 -110.178649 -4.854566 -4.448296 -0.000001 0.000003 -2.441261 77.961336 -6.660932 -2.128050 25.461769 7.355006 -0.005527 
50.722801 -9.567148 50.750000 -4.100439 1.719640 2.232890 1.879561 -0.892198 -0.162947 7.760541 -1.794563 -0.287251 9.405953 -1.797875 -0.265726 40.109224 0.730507 2.446895 -0.141939 12.730964 1.235050 -7.193940 -62.996938 -8.832621 -65.793621 -130.609186 -79.555912 -0.000005 0.000002 -0.000002 51.353040 -13.171422 5.311754 0.000003 0.000000 -3.004570 -5.000221 -7.998769 0.000162 -2.999865 61.733442 3.878409 -59.987987 126.852555 68.701308 0.000001 -0.000020 -0.000001 51.666648 8.920814 -2.572701 0.000002 -0.000009 3.000001 -5.000229 7.998721 -0.000149 -90.976159 -167.863619 9.157527 -179.999991 0.000005 -1.945000 70.095404 2.188473 1.928363 -0.000002 0.000002 2.714811 80.213632 8.261662 -3.827902 25.457198 -7.349463 0.003842 -93.226495 168.937298 -2.589858 -0.000005 -0.000004 -1.485100 -110.195759 -4.864315 -4.458787 -0.000001 0.000003 -2.441470 77.966049 -6.657391 -2.139497 25.461767 7.355008 -0.005545 
